<svg width="26" height="26" viewBox="0 0 26 26" fill="none" xmlns="http://www.w3.org/2000/svg">
<path d="M2.7208 25.1924L5.71745 24.1935C5.89018 24.1376 6.07281 24.1189 6.25328 24.1388C6.43374 24.1587 6.60793 24.2167 6.76432 24.3089C9.46859 25.8546 12.642 26.366 15.6949 25.7484C18.7478 25.1307 21.4728 23.4259 23.3636 20.9506C25.2544 18.4753 26.1824 15.3979 25.9753 12.29C25.7682 9.18209 24.44 6.255 22.2375 4.05251C20.035 1.85001 17.1079 0.521837 14 0.314728C10.8921 0.107619 7.81467 1.03565 5.3394 2.92642C2.86413 4.8172 1.1593 7.54217 0.541639 10.5951C-0.0760259 13.6481 0.435456 16.8214 1.98107 19.5257C2.07329 19.6821 2.13128 19.8563 2.15118 20.0367C2.17108 20.2172 2.15246 20.3998 2.09653 20.5726L1.09765 23.5692C1.02217 23.7953 1.01117 24.0379 1.06588 24.2699C1.12059 24.5019 1.23884 24.7141 1.40739 24.8826C1.57593 25.0512 1.78809 25.1694 2.02008 25.2241C2.25207 25.2788 2.49471 25.2678 2.7208 25.1924ZM13.1172 21.3524C12.8635 21.3524 12.6154 21.2772 12.4045 21.1362C12.1935 20.9953 12.0291 20.7949 11.932 20.5605C11.8349 20.3261 11.8094 20.0681 11.8589 19.8192C11.9084 19.5704 12.0306 19.3418 12.2101 19.1624C12.3895 18.9829 12.6181 18.8608 12.8669 18.8113C13.1158 18.7618 13.3737 18.7872 13.6082 18.8843C13.8426 18.9814 14.043 19.1458 14.1839 19.3568C14.3249 19.5677 14.4001 19.8158 14.4001 20.0695C14.4001 20.4098 14.265 20.7361 14.0244 20.9767C13.7838 21.2173 13.4575 21.3524 13.1172 21.3524ZM10.0254 6.12031C10.5397 5.68955 11.1385 5.37112 11.7832 5.18548C12.4279 4.99984 13.1043 4.95109 13.7689 5.04237C14.4336 5.13365 15.0718 5.36294 15.6426 5.71551C16.2134 6.06807 16.7041 6.53613 17.0833 7.0896C17.4625 7.64308 17.7217 8.26974 17.8443 8.92934C17.9669 9.58894 17.9502 10.2669 17.7953 10.9197C17.6403 11.5724 17.3506 12.1856 16.9446 12.7197C16.5387 13.2538 16.0255 13.6972 15.438 14.0212C15.0442 14.214 14.7099 14.51 14.4708 14.8776C14.2316 15.2452 14.0966 15.6708 14.0799 16.109C14.0819 16.3701 13.9829 16.6218 13.8035 16.8115C13.6242 17.0012 13.3785 17.1143 13.1177 17.127C12.9944 17.1332 12.8711 17.1144 12.7553 17.0717C12.6394 17.029 12.5334 16.9634 12.4435 16.8787C12.3537 16.7941 12.2818 16.6921 12.2323 16.579C12.1829 16.4659 12.1567 16.344 12.1555 16.2205V16.109C12.1691 15.326 12.3952 14.5613 12.8096 13.8968C13.224 13.2322 13.8112 12.6928 14.5084 12.3361C14.9546 12.0907 15.3279 11.7316 15.5904 11.2953C15.853 10.859 15.9955 10.361 16.0034 9.85189C16.0114 9.34275 15.8845 8.84056 15.6357 8.3963C15.3868 7.95203 15.0249 7.58149 14.5866 7.32228C14.1483 7.06307 13.6493 6.92442 13.1401 6.92038C12.6309 6.91635 12.1297 7.04708 11.6874 7.29931C11.245 7.55155 10.8773 7.9163 10.6214 8.35657C10.3656 8.79684 10.2308 9.29695 10.2306 9.80615C10.2306 10.0613 10.1293 10.3061 9.94882 10.4865C9.76838 10.667 9.52364 10.7683 9.26845 10.7683C9.01326 10.7683 8.76852 10.667 8.58808 10.4865C8.40763 10.3061 8.30626 10.0613 8.30626 9.80615C8.3057 9.10344 8.45935 8.40916 8.75636 7.7723C9.05338 7.13544 9.48666 6.57152 10.0254 6.12031Z" fill="#FF6B00"/>
</svg>
