<svg width="63" height="13" viewBox="0 0 63 13" fill="none" xmlns="http://www.w3.org/2000/svg">
<path d="M6.40373 0.923554L7.72246 4.98218H11.99L8.53748 7.49055L9.85621 11.5492L6.40373 9.04081L2.95126 11.5492L4.26998 7.49055L0.817509 4.98218H5.085L6.40373 0.923554Z" fill="#FBBC05"/>
<path d="M18.8034 0.923554L20.1221 4.98218H24.3896L20.9371 7.49055L22.2559 11.5492L18.8034 9.04081L15.3509 11.5492L16.6696 7.49055L13.2172 4.98218H17.4847L18.8034 0.923554Z" fill="#FBBC05"/>
<path d="M31.5301 0.923554L32.7755 4.98218H36.8059L33.5453 7.49055L34.7907 11.5492L31.5301 9.04081L28.2694 11.5492L29.5148 7.49055L26.2542 4.98218H30.2846L31.5301 0.923554Z" fill="#FBBC05"/>
<path d="M43.9303 0.923554L45.1758 4.98218H49.2062L45.9456 7.49055L47.191 11.5492L43.9303 9.04081L40.6697 11.5492L41.9151 7.49055L38.6545 4.98218H42.6849L43.9303 0.923554Z" fill="#FBBC05"/>
<path d="M56.6563 2.54159L57.4995 5.13669L57.6118 5.48218H57.9751H60.7037L58.4962 7.08604L58.2023 7.29957L58.3145 7.64506L59.1577 10.2402L56.9502 8.6363L56.6563 8.42278L56.3624 8.6363L54.1549 10.2402L54.9981 7.64506L55.1104 7.29957L54.8165 7.08604L52.6089 5.48218H55.3376H55.7009L55.8131 5.13669L56.6563 2.54159Z" stroke="#FBBC05"/>
</svg>
