<svg width="95" height="19" viewBox="0 0 95 19" fill="none" xmlns="http://www.w3.org/2000/svg">
<path d="M9 0.0322571L11.0206 6.2511H17.5595L12.2694 10.0946L14.2901 16.3134L9 12.47L3.70993 16.3134L5.73056 10.0946L0.440492 6.2511H6.97937L9 0.0322571Z" fill="#FBBC05"/>
<path d="M28 0.0322571L30.0206 6.2511H36.5595L31.2694 10.0946L33.2901 16.3134L28 12.47L22.7099 16.3134L24.7306 10.0946L19.4405 6.2511H25.9794L28 0.0322571Z" fill="#FBBC05"/>
<path d="M47.5 0.0322571L49.4084 6.2511H55.584L50.5878 10.0946L52.4962 16.3134L47.5 12.47L42.5038 16.3134L44.4122 10.0946L39.416 6.2511H45.5916L47.5 0.0322571Z" fill="#FBBC05"/>
<path d="M66.5 0.0322571L68.4084 6.2511H74.584L69.5878 10.0946L71.4962 16.3134L66.5 12.47L61.5038 16.3134L63.4122 10.0946L58.416 6.2511H64.5916L66.5 0.0322571Z" fill="#FBBC05"/>
<path d="M86 0.0322571L88.0206 6.2511H94.5595L89.2694 10.0946L91.2901 16.3134L86 12.47L80.7099 16.3134L82.7306 10.0946L77.4405 6.2511H83.9794L86 0.0322571Z" fill="#FBBC05"/>
</svg>
